<?xml version="1.0" encoding="utf-8"?>
<!-- Generator: Adobe Illustrator 19.0.0, SVG Export Plug-In . SVG Version: 6.00 Build 0)  -->
<svg version="1.1" id="Layer_1" xmlns="http://www.w3.org/2000/svg" xmlns:xlink="http://www.w3.org/1999/xlink" x="0px" y="0px"
	 viewBox="-103 310 405 173" style="enable-background:new -103 310 405 173;" xml:space="preserve">
<style type="text/css">
	.st0{fill:#881C1C;}
	.st1{fill:#FFFFFF;}
</style>
<g>
	<path d="M-47.9,320.1c-4.3,0.3-6,1.3-6.3,4.2c-0.2,1.9-0.4,5-0.4,11.7v6c0,8.5-1.3,14.6-5.5,19c-3.3,3.5-8.1,5-12.9,5
		c-4.2,0-8.4-1-11.5-3.5c-4.3-3.3-6.3-8.7-6.3-17.1v-18c0-6.5-0.6-6.8-6.3-7.3v-2h18.6v2c-5.7,0.4-6.3,0.8-6.3,7.3v16.4
		c0,11.6,4.6,18.2,13.5,18.2c10.4,0,13.6-8.6,13.6-20.5V336c0-6.6-0.2-9.6-0.5-11.9c-0.4-2.8-1.9-3.7-7-4v-2h17.3V320.1z"/>
</g>
<g>
	<path d="M-28.8,364.9V363c4.2-0.4,4.8-1,4.8-6v-12c0-5-1.7-8.2-6.6-8.2c-2.9,0-5.7,1.8-7.8,3.7v16.9c0,4.9,0.4,5.2,4.7,5.6v1.9
		h-15.6V363c4.9-0.5,5.3-0.9,5.3-5.6v-14.9c0-4.6-0.4-4.8-4.3-5.5v-1.7c3.5-0.6,6.8-1.5,10-3v5.8c1.4-1.1,3-2.2,4.8-3.4
		c2-1.3,3.9-2.2,6-2.2c5.7,0,9.3,4,9.3,10.9v13.9c0,4.9,0.4,5.2,4.5,5.6v1.9h-15.1V364.9z"/>
</g>
<g>
	<path d="M-10.5,364.9V363c4.5-0.4,5-0.9,5-5.8v-14.8c0-4.5-0.2-4.8-4.5-5.5v-1.7c3.7-0.6,7.1-1.5,10.2-2.8v24.8
		c0,4.9,0.5,5.3,5.1,5.8v1.9H-10.5z M-6.7,322.6c0-2.2,1.7-3.7,3.7-3.7s3.6,1.6,3.6,3.7c0,1.9-1.6,3.7-3.7,3.7
		C-5,326.3-6.7,324.6-6.7,322.6z"/>
</g>
<g>
	<path d="M38.8,335.2c-3.7,0.5-4.4,1.2-6.3,5.5c-2.4,5.4-6.2,14.3-10.2,25h-1.9c-3.2-8.6-6.6-16.8-9.9-25.2
		c-1.7-4.2-2.2-4.7-6.1-5.3v-1.8h14.7v1.8c-3.9,0.5-4,1.1-2.9,4.2c1.9,5,4.8,12.6,6.8,17.8c2.5-6,4.8-12.5,6.4-17.2
		c1.1-3.5,0.6-4.2-3.5-4.8v-1.8h12.8L38.8,335.2L38.8,335.2z"/>
</g>
<g>
	<path d="M62.8,358.8c-4.5,5.7-9.5,7-11.7,7c-8.9,0-14-7.2-14-15.3c0-5,1.8-9.4,4.8-12.6c3-3.3,6.8-5.3,10.6-5.3
		c6,0,10.8,5.3,10.8,10.9c0,1.4-0.4,2-1.7,2.3c-1.2,0.2-10.2,0.9-18.8,1.2c0.1,9.8,5.7,13.8,10.7,13.8c2.9,0,5.6-1.2,8.2-3.6
		L62.8,358.8z M43,344.1c4,0,8-0.1,12.2-0.2c1.3,0,1.7-0.4,1.7-1.4c0.1-3.7-2.4-7.2-6.3-7.2C47.3,335.2,44.1,338.3,43,344.1z"/>
</g>
<g>
	<path d="M77.4,340.2c2.2-3.6,5.3-7.6,8.7-7.6c2.4,0,4.2,1.9,4.2,3.6c0,1.4-0.9,2.9-2.3,3.5c-0.9,0.4-1.5,0.3-1.9-0.1
		c-1-1.1-1.9-1.5-3-1.5c-1.9,0-4.2,2.2-5.8,6.2v13.2c0,4.8,0.4,5.2,5.9,5.6v1.9H66.6v-2c4.5-0.4,5-0.9,5-5.6v-14.9
		c0-4.8-0.4-5-4.5-5.6v-1.6c3.5-0.6,6.7-1.4,10.2-3v7.8h0.1V340.2z"/>
</g>
<g>
	<path d="M110.5,341.9c-1.4-4.2-3.9-7.1-7.4-7.1c-2.7,0-4.7,2.2-4.7,5c0,3.2,2.9,4.9,6.1,6.3c5.4,2.2,9.1,4.8,9.1,9.8
		c0,6.6-6.1,9.9-11.9,9.9c-3.7,0-7-1.4-8.3-2.4c-0.5-1-1.2-5.9-1.2-8.5l1.9-0.4c1.3,4.8,4.5,8.9,8.9,8.9c2.7,0,5.1-2,5.1-5
		c0-3.2-2.1-4.9-5.7-6.6c-4.3-2-9-4.4-9-9.9c0-5,4.3-9.3,10.9-9.3c3,0,4.9,0.6,6.4,1.2c0.6,1.7,1.4,5.9,1.6,7.7L110.5,341.9z"/>
</g>
<g>
	<path d="M117.7,364.9V363c4.5-0.4,5-0.9,5-5.8v-14.8c0-4.5-0.2-4.8-4.5-5.5v-1.7c3.7-0.6,7.1-1.5,10.2-2.8v24.8
		c0,4.9,0.5,5.3,5.1,5.8v1.9H117.7z M121.5,322.6c0-2.2,1.7-3.7,3.7-3.7s3.6,1.6,3.6,3.7c0,1.9-1.6,3.7-3.7,3.7
		C123.2,326.3,121.5,324.6,121.5,322.6z"/>
</g>
<g>
	<path d="M150.5,364.8c-1.2,0.6-2.4,0.9-3,0.9c-4.5,0-7.1-2.9-7.1-8.6v-21h-5l-0.3-0.7l1.9-2.1h3.3V328l4.7-4.8l1,0.1v9.9h8.1
		c0.6,0.7,0.4,2.3-0.4,2.8h-7.6v18.5c0,5.8,2.4,6.9,4.2,6.9s3.5-0.7,4.5-1.2l0.6,1.9L150.5,364.8z"/>
</g>
<g>
	<path d="M190.1,335.2c-3.8,0.6-4.5,1.2-6.4,5.3c-1.8,3.8-4,9.8-9,21.7c-4.8,11.5-6.4,15.6-7.4,19.5c-0.4,1.4-1.3,1.7-2.3,1.7
		c-2,0-4.1-1.7-4.1-3.5c0-1.2,0.6-1.8,1.9-2.6c2.2-1.4,3.7-3.2,5.3-6.4c1.4-2.5,1.9-4,2.2-5c0.4-1.1,0.4-2-0.1-3.2
		c-2.9-8.2-6.1-16.9-8.3-22c-1.5-4-2.2-4.9-6.2-5.5v-1.8h14.6v1.8c-3.3,0.6-3.7,1.3-2.7,4l6.6,18.1c2-4.9,5.1-13.4,6.6-17.9
		c0.9-2.7,0.4-3.5-3.7-4.1v-1.8h13L190.1,335.2L190.1,335.2z"/>
</g>
<g>
	<path d="M-56.4,422.9v-2c5.8-0.6,6.1-0.9,6-8.6l-0.2-29.4h-0.3l-17.6,39.5h-1.4L-86,384h-0.1l-1.1,20.5c-0.3,5.9-0.3,9.1-0.2,12
		c0.1,3.5,1.9,4,6.6,4.5v2h-16.8v-2c4.2-0.5,5.6-1.3,6.1-4.3c0.4-2.5,0.8-5.7,1.4-13.2l1-15c0.6-9.4,0.3-9.6-6.3-10.3v-2h11.8
		l16.4,36l16.6-36h12.2v2c-6.3,0.6-6.8,0.7-6.6,8.1l0.7,26.1c0.2,7.6,0.4,8,6.7,8.6v2h-18.8V422.9z"/>
</g>
<g>
	<path d="M-12.3,423.8c-1.1,0-2.6-0.6-3.4-1.4c-0.9-1-1.4-2-1.7-3.2c-2.9,1.9-6.3,4.6-8.5,4.6c-5.1,0-8.6-4.2-8.6-8.8
		c0-3.5,1.9-5.8,5.8-7.1c4.3-1.4,9.6-3.4,11.2-4.7v-1.3c0-5.2-2.4-8.1-6-8.1c-1.4,0-2.5,0.6-3.2,1.4c-0.9,0.9-1.6,2.5-2.2,4.8
		c-0.3,1.2-1.1,1.7-2.1,1.7c-1.3,0-3.2-1.4-3.2-3.1c0-1.1,0.9-1.9,2.3-2.9c2-1.4,6.7-4.2,10.8-5c2.2,0,4.3,0.6,5.9,1.9
		c2.5,2.1,3.2,5,3.2,8.8v13.4c0,3.2,1.3,4.3,2.5,4.3c0.9,0,1.9-0.4,2.6-0.8l0.7,1.9L-12.3,423.8z M-17.5,405.7c-1.5,0.8-5,2.3-6.5,3
		c-2.8,1.3-4.4,2.7-4.4,5.3c0,3.7,2.9,5.5,5.1,5.5c1.9-0.1,4.4-1.3,5.8-2.6C-17.5,416.9-17.5,405.7-17.5,405.7z"/>
</g>
<g>
	<path d="M14.4,400c-1.4-4.2-3.9-7.1-7.4-7.1c-2.7,0-4.7,2.2-4.7,5c0,3.2,2.9,4.9,6.1,6.3c5.4,2.2,9.1,4.8,9.1,9.8
		c0,6.6-6.1,9.9-11.9,9.9c-3.7,0-7-1.4-8.3-2.4c-0.5-1-1.2-5.9-1.2-8.5l1.9-0.4c1.3,4.8,4.5,8.9,8.9,8.9c2.7,0,5.1-2,5.1-5
		c0-3.2-2.1-4.9-5.7-6.6c-4.3-2-9-4.4-9-9.9c0-5,4.3-9.3,10.9-9.3c3,0,4.9,0.6,6.4,1.2c0.6,1.7,1.4,5.9,1.6,7.7L14.4,400z"/>
</g>
<g>
	<path d="M39.7,400c-1.4-4.2-3.9-7.1-7.4-7.1c-2.7,0-4.7,2.2-4.7,5c0,3.2,2.9,4.9,6.1,6.3c5.4,2.2,9.1,4.8,9.1,9.8
		c0,6.6-6.1,9.9-11.9,9.9c-3.7,0-7-1.4-8.3-2.4c-0.5-1-1.2-5.9-1.2-8.5l1.9-0.4c1.3,4.8,4.5,8.9,8.9,8.9c2.7,0,5.1-2,5.1-5
		c0-3.2-2.1-4.9-5.7-6.6c-4.3-2-9-4.4-9-9.9c0-5,4.3-9.3,10.9-9.3c3,0,4.9,0.6,6.4,1.2c0.6,1.7,1.4,5.9,1.6,7.7L39.7,400z"/>
</g>
<g>
	<path d="M68.9,423.8c-1.1,0-2.6-0.6-3.4-1.4c-0.9-1-1.4-2-1.7-3.2c-2.9,1.9-6.3,4.6-8.5,4.6c-5.1,0-8.6-4.2-8.6-8.8
		c0-3.5,1.9-5.8,5.8-7.1c4.3-1.4,9.6-3.4,11.2-4.7v-1.3c0-5.2-2.4-8.1-6-8.1c-1.4,0-2.5,0.6-3.2,1.4c-0.9,0.9-1.6,2.5-2.2,4.8
		c-0.3,1.2-1.1,1.7-2.1,1.7c-1.3,0-3.2-1.4-3.2-3.1c0-1.1,0.9-1.9,2.3-2.9c2-1.4,6.7-4.2,10.8-5c2.2,0,4.3,0.6,5.9,1.9
		c2.5,2.1,3.2,5,3.2,8.8v13.4c0,3.2,1.3,4.3,2.5,4.3c0.9,0,1.9-0.4,2.6-0.8l0.7,1.9L68.9,423.8z M63.6,405.7c-1.5,0.8-5,2.3-6.5,3
		c-2.8,1.3-4.4,2.7-4.4,5.3c0,3.7,2.9,5.5,5.1,5.5c1.9-0.1,4.4-1.3,5.8-2.6C63.6,416.9,63.6,405.7,63.6,405.7z"/>
</g>
<g>
	<path d="M102.6,416.5c-3.2,4.2-8,7.3-12.2,7.3c-9.1,0-14.4-7.3-14.4-15c0-5.5,2.4-10.4,7.2-14.1c3.7-2.9,8.1-4,10.9-4
		c2.9,0,5.3,0.9,6.4,1.9c0.9,0.8,1.2,1.4,1.2,2.2c0,1.5-1.6,3.1-2.4,3.1c-0.4,0-0.7-0.2-1.4-0.8c-2.2-2-4.7-3-7.2-3
		c-4.8,0-8.9,4-8.9,11.5c0,10,6.8,13.3,10.9,13.3c3.1,0,5.5-0.9,8.8-4L102.6,416.5z"/>
</g>
<g>
	<path d="M123.2,422.9V421c4.2-0.4,4.8-0.9,4.8-5.5v-12c0-5.9-2.2-8.9-7.1-8.9c-2.7,0-5.5,1.4-7.5,3.7v17.1c0,4.6,0.4,5.1,4.6,5.5
		v1.9h-15.3v-1.9c4.3-0.4,5-0.8,5-5.5v-34.3c0-4.5-0.1-4.9-4.9-5.3v-1.7c3.5-0.5,7.8-1.7,10.6-2.5v24.2c2.5-2.6,6.4-5.3,10.3-5.3
		c5.8,0,9.9,3.7,9.9,12.3v12.6c0,4.8,0.5,5.2,4.8,5.5v1.9L123.2,422.9L123.2,422.9z"/>
</g>
<g>
	<path d="M173.9,421.2c-3.3,0.5-7,1.5-10.6,2.6l-0.4-0.4v-5.1c-1.7,1.2-3.3,2.5-5.3,3.7c-2.1,1.2-3.6,1.8-5.5,1.8
		c-4.8,0-8.9-3-8.9-10.7V399c0-4-0.3-4.2-4.4-5v-1.7c3.4-0.2,6.8-0.6,10.3-1.3c-0.2,2.2-0.2,5.6-0.2,10.5v9.6c0,6.4,3.1,8.1,6.3,8.1
		c2.6,0,5.3-1.1,7.8-3.5V399c0-4.1-0.4-4.4-5.6-5.1v-1.7c3.7-0.2,7.5-0.5,11.3-1.3v24c0,3.6,0.6,4.1,3.3,4.2l2,0.1v2H173.9z"/>
	<path d="M195.4,400c-1.4-4.2-3.9-7.1-7.4-7.1c-2.7,0-4.7,2.2-4.7,5c0,3.2,2.9,4.9,6.1,6.3c5.4,2.2,9.1,4.8,9.1,9.8
		c0,6.6-6.1,9.9-11.9,9.9c-3.7,0-7-1.4-8.3-2.4c-0.5-1-1.2-5.9-1.2-8.5l1.9-0.4c1.3,4.8,4.5,8.9,8.9,8.9c2.7,0,5.1-2,5.1-5
		c0-3.2-2.1-4.9-5.7-6.6c-4.3-2-9-4.4-9-9.9c0-5,4.3-9.3,10.9-9.3c3,0,4.9,0.6,6.4,1.2c0.6,1.7,1.4,5.9,1.6,7.7L195.4,400z"/>
</g>
<g>
	<path d="M228.3,416.8c-4.5,5.7-9.5,7-11.7,7c-8.9,0-14-7.2-14-15.3c0-5,1.8-9.4,4.8-12.6c3-3.3,6.8-5.3,10.6-5.3
		c6,0,10.8,5.3,10.8,10.9c0,1.4-0.4,2-1.7,2.3c-1.2,0.2-10.2,0.9-18.8,1.2c0.1,9.8,5.7,13.8,10.7,13.8c2.9,0,5.6-1.2,8.2-3.6
		L228.3,416.8z M208.6,402.1c4,0,8-0.1,12.2-0.2c1.3,0,1.7-0.4,1.7-1.4c0.1-3.7-2.4-7.2-6.3-7.2
		C212.8,393.3,209.6,396.3,208.6,402.1z"/>
</g>
<g>
	<path d="M245.6,422.9c-1.2,0.6-2.4,0.9-3,0.9c-4.5,0-7.1-2.9-7.1-8.6v-21h-5l-0.3-0.7l1.9-2.1h3.3v-5.3l4.7-4.8l1,0.1v9.9h8.1
		c0.6,0.7,0.4,2.3-0.4,2.8h-7.7v18.5c0,5.8,2.4,6.9,4.2,6.9s3.5-0.7,4.5-1.2l0.6,1.9L245.6,422.9z"/>
</g>
<g>
	<path d="M266.2,422.9c-1.2,0.6-2.4,0.9-3,0.9c-4.5,0-7.1-2.9-7.1-8.6v-21h-5l-0.3-0.7l1.9-2.1h3.3v-5.3l4.7-4.8l1,0.1v9.9h8.1
		c0.6,0.7,0.4,2.3-0.4,2.8h-7.7v18.5c0,5.8,2.4,6.9,4.2,6.9c1.8,0,3.5-0.7,4.5-1.2l0.6,1.9L266.2,422.9z"/>
</g>
<g>
	<path d="M291.7,400c-1.4-4.2-3.9-7.1-7.4-7.1c-2.7,0-4.7,2.2-4.7,5c0,3.2,2.9,4.9,6.1,6.3c5.4,2.2,9.1,4.8,9.1,9.8
		c0,6.6-6.1,9.9-11.9,9.9c-3.7,0-7-1.4-8.3-2.4c-0.5-1-1.2-5.9-1.2-8.5l1.9-0.4c1.3,4.8,4.5,8.9,8.9,8.9c2.7,0,5.1-2,5.1-5
		c0-3.2-2.1-4.9-5.7-6.6c-4.3-2-9-4.4-9-9.9c0-5,4.3-9.3,10.9-9.3c3,0,4.9,0.6,6.4,1.2c0.6,1.7,1.4,5.9,1.6,7.7L291.7,400z"/>
</g>
<g>
	<path d="M199.2,350.5c0-6.2,3.3-11,7.3-13.1c1.7-0.9,3.7-1.5,5.2-1.5c4,0,6.4,2.7,6.4,7.5c0,4.1-1.8,8.8-5.1,11.6
		c-2.1,1.7-4.7,3-7.4,3C201,358,199.2,354.4,199.2,350.5z M208.8,355.8c2.6-1.1,5.2-6.2,5.2-12.3c0-3.9-1.7-5.8-3.9-5.8
		c-0.7,0-1.3,0.2-1.8,0.4c-1.9,0.8-5.1,4.8-5.1,12.1c0,3.6,1.5,5.8,4,5.8C207.9,356,208.4,356,208.8,355.8z"/>
	<path d="M224.1,336.6c0.7-3.6,1.9-7.2,4-9.6c2.2-2.4,4.9-3.8,6.9-3.8c1.7,0,2.9,1.2,2.9,2.1c0,0.7-0.7,1.6-1.2,2
		c-0.4,0.3-0.9,0.3-1.2,0c-1-1.1-2-1.7-3-1.7c-1.8,0-3.2,2.2-4.7,11.1h5.4l-1,1.5l-4.8,0.5c-0.9,5.3-1.4,8.2-2.4,13.5
		c-1.7,8.3-3.5,11.9-6.1,14.6c-2.1,2.3-4.1,3-5.4,3c-1.4,0-3-1-3-2.1c0-0.6,0.6-1.4,1.3-2c0.4-0.3,0.6-0.3,0.9,0
		c0.8,0.7,2.2,1.2,3,1.2s1.6-0.4,2.1-1c0.6-0.7,1.8-2.7,3.4-12c1.2-6.6,1.8-10.7,2.6-15.4h-4l-0.1-0.5l1.4-1.3h3V336.6z"/>
</g>
<g>
	<path d="M-74.6,474v-1.6c3.7-0.5,4.2-0.9,3.4-3.2c-0.8-2.3-1.9-5.4-3.2-8.9h-12.4c-0.9,2.6-1.8,5-2.6,7.5c-1.3,3.7-0.8,4.2,3.6,4.6
		v1.6h-12.6v-1.6c3.7-0.5,4.5-0.9,6.5-6l12-30.4l1.8-0.5c3.6,10,7.5,21,11.2,31.1c1.9,5,2.6,5.5,6.4,5.9v1.6h-14.1V474z
		 M-80.3,442.9L-80.3,442.9c-2,5-3.8,10-5.6,14.8h10.7L-80.3,442.9z"/>
</g>
<g>
	<path d="M-26.7,474v-1.5c3.4-0.3,4.1-0.6,4.1-4.7v-9.7c0-4.1-1.4-6.7-5.1-6.7c-2.1,0-4.3,1.2-6.5,3c0.1,0.7,0.2,1.3,0.2,2.4v11.3
		c0,3.7,0.5,4,3.7,4.3v1.5h-12.4v-1.5c3.6-0.3,4.1-0.6,4.1-4.5v-10c0-4.3-1.5-6.7-5-6.7c-2.3,0-4.6,1.6-6.3,3V468
		c0,3.8,0.5,4.1,3.3,4.5v1.5h-12.2v-1.5c3.8-0.3,4.4-0.7,4.4-4.5v-12c0-3.7-0.2-4-3.5-4.5v-1.3c2.6-0.5,5.5-1.2,8.1-2.4v4.7
		c1.2-0.8,2.5-1.9,4.2-3c1.5-0.9,2.9-1.6,4.8-1.6c2.8,0,5.3,1.7,6.4,4.8c1.7-1.3,3.4-2.4,4.8-3.2c1.2-0.8,2.7-1.5,4.4-1.5
		c4.5,0,7.4,3.2,7.4,8.9V468c0,3.9,0.5,4.1,3.8,4.5v1.5H-26.7z"/>
</g>
<g>
	<path d="M3.9,474v-1.5c3.4-0.3,3.8-0.7,3.8-4.5v-9.6c0-4.8-1.8-7.1-5.7-7.1c-2.2,0-4.4,1.1-6,3V468c0,3.7,0.3,4.1,3.7,4.5v1.5
		h-12.3v-1.5c3.5-0.3,4-0.6,4-4.5v-27.7c0-3.7-0.1-3.9-3.9-4.3v-1.3c2.8-0.4,6.3-1.3,8.5-2v19.5c2-2.1,5.2-4.2,8.3-4.2
		c4.7,0,8,3,8,9.9V468c0,3.8,0.4,4.2,3.8,4.5v1.5H3.9z"/>
</g>
<g>
	<path d="M38.8,469c-3.7,4.6-7.7,5.6-9.5,5.6c-7.1,0-11.3-5.8-11.3-12.4c0-4,1.4-7.5,3.8-10.1c2.4-2.7,5.5-4.2,8.5-4.2
		c4.8,0,8.7,4.3,8.7,8.8c0,1.2-0.3,1.6-1.3,1.9c-1,0.2-8.2,0.8-15.1,1c0.1,7.9,4.6,11.1,8.6,11.1c2.3,0,4.5-0.9,6.6-2.9L38.8,469z
		 M22.9,457.2c3.2,0,6.4-0.1,9.8-0.2c1,0,1.4-0.3,1.4-1.2c0.1-3-1.9-5.8-5.1-5.8C26.3,450.1,23.8,452.5,22.9,457.2z"/>
</g>
<g>
	<path d="M50.6,454.1c1.7-2.9,4.2-6.1,7-6.1c2,0,3.4,1.5,3.4,2.9c0,1.2-0.8,2.3-1.9,2.8c-0.7,0.3-1.2,0.2-1.6-0.1
		c-0.8-0.9-1.5-1.2-2.4-1.2c-1.5,0-3.4,1.7-4.6,5V468c0,3.8,0.3,4.2,4.8,4.5v1.5H41.9v-1.5c3.6-0.3,4-0.7,4-4.5v-12
		c0-3.8-0.3-4.1-3.6-4.5v-1.3c2.8-0.5,5.4-1.2,8.2-2.4L50.6,454.1L50.6,454.1L50.6,454.1z"/>
</g>
<g>
	<path d="M77,455.4c-1.1-3.4-3.1-5.7-6-5.7c-2.2,0-3.8,1.7-3.8,4c0,2.6,2.3,3.9,4.9,5c4.3,1.8,7.3,3.9,7.3,7.9c0,5.3-4.9,8-9.6,8
		c-3,0-5.6-1.1-6.7-2c-0.4-0.8-0.9-4.8-0.9-6.8l1.5-0.3c1,3.8,3.7,7.2,7.1,7.2c2.1,0,4.1-1.6,4.1-4.1c0-2.6-1.7-3.9-4.6-5.3
		c-3.5-1.6-7.2-3.5-7.2-8c0-4.1,3.5-7.5,8.8-7.5c2.4,0,3.9,0.5,5.2,1c0.5,1.3,1.1,4.8,1.3,6.2L77,455.4z"/>
</g>
<g>
	<path d="M93.1,473.9c-1,0.5-1.9,0.8-2.4,0.8c-3.7,0-5.7-2.3-5.7-6.9v-16.9h-4l-0.2-0.6l1.6-1.7h2.7v-4.2l3.8-3.8l0.8,0.1v7.9h6.4
		c0.5,0.6,0.3,1.9-0.3,2.3h-6.2v14.9c0,4.7,1.9,5.6,3.4,5.6s2.8-0.6,3.6-1l0.5,1.5L93.1,473.9z"/>
</g>
<g>
	<rect x="107.1" y="436" class="st0" width="187.7" height="39"/>
	<g>
		<g>
			<path class="st1" d="M123,449.2h3.7c2.6,0,3.8,1,3.8,3.1c0,2-1.3,2.6-2.1,2.9l0,0c1,0.2,2.4,0.9,2.4,3c0,2.3-1.7,3.6-3.9,3.6
				h-3.8L123,449.2L123,449.2z M125.3,454.5h1.2c1.1,0,1.8-0.9,1.8-1.9c0-1.1-0.8-1.7-1.8-1.7h-1.1L125.3,454.5L125.3,454.5z
				 M125.3,460.1h1.3c1.2,0,1.9-0.8,1.9-1.9s-0.6-1.9-2-1.9h-1.2V460.1z"/>
			<path class="st1" d="M133.4,449.2h6.6v1.8h-4.3v3.4h4.1v1.8h-4.1v3.7h4.5v1.8h-6.8V449.2z"/>
			<path class="st1" d="M147.9,449.2h3.9c2.2,0,3.7,1,3.7,3.3c0,1.6-1,2.8-2.4,3v0.1c0.5,0.1,1,0.3,1.4,1.5l1.6,4.8h-2.4l-1.2-4.1
				c-0.3-1-0.9-1.3-1.7-1.3h-0.5v5.4H148v-12.7H147.9z M151.1,454.8c1.2,0,2-0.6,2-1.9c0-1.5-0.8-1.8-2-1.8h-0.9v3.7L151.1,454.8
				L151.1,454.8z"/>
			<path class="st1" d="M158.3,449.2h6.6v1.8h-4.3v3.4h4.1v1.8h-4.1v3.7h4.5v1.8h-6.8V449.2z"/>
			<path class="st1" d="M166.8,449.2h2.5l2.5,9.8l0,0l2.6-9.8h2.4l-3.8,12.7h-2.4L166.8,449.2z"/>
			<path class="st1" d="M182.8,449.1c2.6,0,5,2,5,6.5s-2.4,6.5-5,6.5s-5-2-5-6.5S180.2,449.1,182.8,449.1z M182.8,460.3
				c1.5,0,2.6-1.3,2.6-4.7s-1.2-4.7-2.6-4.7c-1.5,0-2.6,1.3-2.6,4.7S181.4,460.3,182.8,460.3z"/>
			<path class="st1" d="M190.4,449.2h2.3V460h4.1v1.8h-6.4L190.4,449.2L190.4,449.2z"/>
			<path class="st1" d="M200.9,449.2v8.2c0,2.1,0.6,2.8,2,2.8c1.3,0,2-0.7,2-2.8v-8.2h2.3v8.2c0,3.3-1.9,4.6-4.3,4.6
				c-2.4,0-4.3-1.3-4.3-4.6v-8.2H200.9z"/>
			<path class="st1" d="M212,451.1h-2.8v-1.8h7.9v1.8h-2.8v10.8H212L212,451.1L212,451.1z"/>
			<path class="st1" d="M219.1,449.2h2.3v12.7h-2.3V449.2z"/>
			<path class="st1" d="M229,449.1c2.6,0,5,2,5,6.5s-2.4,6.5-5,6.5s-5-2-5-6.5S226.4,449.1,229,449.1z M229,460.3
				c1.5,0,2.6-1.3,2.6-4.7s-1.2-4.7-2.6-4.7c-1.5,0-2.6,1.3-2.6,4.7S227.6,460.3,229,460.3z"/>
			<path class="st1" d="M236.6,449.2h2.7l4.2,9.9l0,0v-9.9h2.1v12.7h-2.7l-4.1-9.9l0,0v9.9h-2.1L236.6,449.2L236.6,449.2z"/>
			<path class="st1" d="M255.1,458.9h-4.3l-0.9,3h-2.3l4.2-12.7h2.5l4,12.7h-2.4L255.1,458.9z M254.6,457.1l-1.6-5.9l0,0l-1.7,5.9
				H254.6z"/>
			<path class="st1" d="M260.2,449.2h3.9c2.2,0,3.7,1,3.7,3.3c0,1.6-1,2.8-2.4,3v0.1c0.5,0.1,1,0.3,1.4,1.5l1.6,4.8H266l-1.2-4.1
				c-0.3-1-0.9-1.3-1.7-1.3h-0.5v5.4h-2.3v-12.7H260.2z M263.5,454.8c1.2,0,2-0.6,2-1.9c0-1.5-0.8-1.8-2-1.8h-0.9v3.7L263.5,454.8
				L263.5,454.8z"/>
			<path class="st1" d="M272.9,456.8l-3.7-7.6h2.5l2.4,5.1l2.3-5.1h2.5l-3.7,7.6v5h-2.3L272.9,456.8L272.9,456.8z"/>
		</g>
	</g>
</g>
<g>
	<path class="st1" d="M280.7,449.6h-0.8v-0.4h2.1v0.4h-0.8v3.3h-0.5L280.7,449.6L280.7,449.6z"/>
	<path class="st1" d="M283.2,449.2h0.7l0.9,2.9l0,0l0.9-2.9h0.7v3.7H286v-3.2l0,0l-1,3.2h-0.3l-1-3.2l0,0v3.2h-0.4v-3.7H283.2z"/>
</g>
</svg>
