<svg id="Layer_1" data-name="Layer 1" xmlns="http://www.w3.org/2000/svg" viewBox="0 0 32 32"><defs><style>.cls-1{fill:#6c757d;}</style></defs><path class="cls-1" d="M21,27.93V26.68c2.87-.29,3-.54,3-4.07V8c-2.78,6.47-6.37,14.7-8.54,19.9H14.29c-2-5.07-5.14-13.06-7.84-19.58-.53,12-.54,14.52-.54,15.62,0,2,.83,2.45,3.5,2.71v1.25h-9V26.68c2.11-.2,3-.61,3.34-2.74.17-1.29.28-3.11,1.16-15.71.13-1.81-.17-2.68-3.36-3V4H9l7.46,17.08L24.13,4h7.3V5.26c-3,.32-3.38.63-3.31,3.44l.24,13.91c.08,3.53.21,3.69,3.28,4.07v1.25Z"/></svg>